<svg width="100%" height="100%" viewBox="0 0 40 40" fill="none" xmlns="http://www.w3.org/2000/svg">
<path d="M9.99967 23.3333H29.9997V20H9.99967V23.3333ZM9.99967 18.3333H29.9997V15H9.99967V18.3333ZM9.99967 13.3333H29.9997V9.99999H9.99967V13.3333ZM36.6663 36.6667L29.9997 30H6.66634C5.74967 30 4.96495 29.6736 4.31217 29.0208C3.6594 28.368 3.33301 27.5833 3.33301 26.6667V6.66666C3.33301 5.74999 3.6594 4.96527 4.31217 4.31249C4.96495 3.65972 5.74967 3.33333 6.66634 3.33333H33.333C34.2497 3.33333 35.0344 3.65972 35.6872 4.31249C36.34 4.96527 36.6663 5.74999 36.6663 6.66666V36.6667ZM6.66634 26.6667H31.4163L33.333 28.5417V6.66666H6.66634V26.6667Z" fill="currentColor"/>
</svg>
