<svg width="100%" height="100%" viewBox="0 0 22 20" fill="none" xmlns="http://www.w3.org/2000/svg">
<path d="M10.7469 0C10.9147 0 11.0807 0.0337104 11.2342 0.0986328L11.3836 0.173828L11.5213 0.268555C11.6085 0.337298 11.6858 0.417593 11.7518 0.506836L11.8426 0.647461L11.8495 0.65918L11.8485 0.660156L14.7958 6.25488C14.8134 6.28732 14.8392 6.31607 14.869 6.33789C14.8986 6.35953 14.9326 6.37484 14.9686 6.38184C15.0048 6.38886 15.0422 6.38704 15.078 6.37793C15.1127 6.36907 15.1448 6.35257 15.1727 6.33008L19.4422 2.67285C19.447 2.66879 19.452 2.66508 19.4569 2.66113C19.6621 2.49419 19.9153 2.39685 20.1795 2.38281L20.2782 2.38086C20.4756 2.38596 20.6691 2.43795 20.8426 2.53223L20.9276 2.58301L21.0077 2.63965C21.1644 2.7601 21.2901 2.91618 21.3749 3.09473L21.4139 3.18555L21.4452 3.2793C21.5099 3.50013 21.5127 3.73566 21.452 3.95898L21.451 3.96191L18.617 14.208C18.5157 14.5746 18.2977 14.8982 17.9959 15.1299C17.6941 15.3616 17.3248 15.4891 16.9442 15.4922H4.55259C4.17167 15.4895 3.80113 15.3627 3.49888 15.1309C3.19686 14.8992 2.97918 14.5749 2.87778 14.208L0.0447741 3.96289L0.0437975 3.95996C-0.025551 3.70474 -0.0123192 3.43365 0.0818834 3.18652L0.120946 3.0957C0.219718 2.88768 0.374118 2.71026 0.568212 2.58398L0.653172 2.5332C0.826709 2.43894 1.02021 2.38692 1.21763 2.38184L1.31626 2.38379L1.41489 2.39258C1.6105 2.41863 1.79737 2.49048 1.95981 2.60254L2.03891 2.66211L2.05356 2.6748L6.32114 6.33105C6.34917 6.35377 6.38187 6.36999 6.41684 6.37891C6.45257 6.38799 6.49003 6.38983 6.52622 6.38281C6.56224 6.3758 6.59619 6.36052 6.62583 6.33887C6.65559 6.31704 6.6805 6.2883 6.69809 6.25586L9.64536 0.65918L9.6522 0.647461C9.76008 0.451525 9.91863 0.287651 10.1112 0.173828L10.2606 0.0986328C10.414 0.033795 10.5793 5.68934e-05 10.7469 0ZM8.02134 6.96289L8.01645 6.97168C7.89337 7.1985 7.72159 7.39519 7.51352 7.54785C7.30518 7.70061 7.065 7.80628 6.81138 7.85547C6.55783 7.9046 6.29602 7.89679 6.04575 7.83301C5.79554 7.76919 5.56218 7.65082 5.36313 7.48633L5.35337 7.47754L1.70884 4.35449L4.32309 13.8076C4.33758 13.86 4.36885 13.9073 4.41196 13.9404C4.45508 13.9735 4.50802 13.9918 4.56235 13.9922H16.9325C16.9868 13.9917 17.0398 13.9735 17.0829 13.9404C17.126 13.9073 17.1573 13.86 17.1717 13.8076L19.786 4.35254L16.1415 7.47656L16.1307 7.48535C15.9317 7.64974 15.6983 7.76828 15.4481 7.83203C15.1979 7.89571 14.9369 7.90263 14.6834 7.85352C14.4298 7.80433 14.1896 7.69963 13.9813 7.54688C13.7732 7.39422 13.6015 7.19752 13.4784 6.9707L13.4735 6.96289L10.7469 1.78613L8.02134 6.96289Z" fill="currentColor"/>
<path d="M17.7473 17.9928C18.1616 17.9928 18.4973 18.3286 18.4973 18.7428C18.4973 19.1571 18.1616 19.4928 17.7473 19.4928H3.74735C3.33313 19.4928 2.99735 19.1571 2.99735 18.7428C2.99735 18.3286 3.33313 17.9928 3.74735 17.9928H17.7473Z" fill="currentColor"/>
</svg>
