<svg width="100%" height="100%" viewBox="0 0 20 22" fill="none" xmlns="http://www.w3.org/2000/svg">
<path d="M18.75 4C19.1642 4 19.5 4.33579 19.5 4.75C19.5 5.16421 19.1642 5.5 18.75 5.5H0.75C0.335786 5.5 0 5.16421 0 4.75C0 4.33579 0.335786 4 0.75 4H18.75Z" fill="currentColor"/>
<path d="M2 18.75V4.75C2 4.33579 2.33579 4 2.75 4C3.16421 4 3.5 4.33579 3.5 4.75V18.75C3.5 19.0061 3.63553 19.325 3.90527 19.5947C4.17501 19.8645 4.49392 20 4.75 20H14.75C15.0061 20 15.325 19.8645 15.5947 19.5947C15.8645 19.325 16 19.0061 16 18.75V4.75C16 4.33579 16.3358 4 16.75 4C17.1642 4 17.5 4.33579 17.5 4.75V18.75C17.5 19.4939 17.1355 20.175 16.6553 20.6553C16.175 21.1355 15.4939 21.5 14.75 21.5H4.75C4.00608 21.5 3.32499 21.1355 2.84473 20.6553C2.36447 20.175 2 19.4939 2 18.75Z" fill="currentColor"/>
<path d="M13 4.75V2.75C13 2.49392 12.8645 2.17501 12.5947 1.90527C12.325 1.63553 12.0061 1.5 11.75 1.5H7.75C7.49392 1.5 7.17501 1.63553 6.90527 1.90527C6.63553 2.17501 6.5 2.49392 6.5 2.75V4.75C6.5 5.16421 6.16421 5.5 5.75 5.5C5.33579 5.5 5 5.16421 5 4.75V2.75C5 2.00608 5.36447 1.32499 5.84473 0.844727C6.32499 0.364467 7.00608 0 7.75 0H11.75C12.4939 0 13.175 0.364467 13.6553 0.844727C14.1355 1.32499 14.5 2.00608 14.5 2.75V4.75C14.5 5.16421 14.1642 5.5 13.75 5.5C13.3358 5.5 13 5.16421 13 4.75Z" fill="currentColor"/>
</svg>
