<svg width="100%" height="100%" viewBox="0 0 22 16" fill="none" xmlns="http://www.w3.org/2000/svg">
<path d="M10.7509 0C13.0282 9.32491e-05 15.2539 0.67674 17.1465 1.94336C19.0391 3.21008 20.5135 5.00985 21.3818 7.11523C21.3852 7.12349 21.3885 7.13225 21.3916 7.14062C21.5373 7.53347 21.5374 7.96556 21.3916 8.3584C21.3885 8.36677 21.3852 8.37554 21.3818 8.38379C20.5135 10.4891 19.039 12.289 17.1465 13.5557C15.2539 14.8222 13.0282 15.4989 10.7509 15.499C8.47354 15.499 6.24711 14.8223 4.35446 13.5557C2.46188 12.289 0.987461 10.4891 0.11911 8.38379C0.115706 8.37554 0.112452 8.36677 0.109345 8.3584C-0.0364748 7.96557 -0.0364216 7.53347 0.109345 7.14062L0.11911 7.11523C0.987449 5.00985 2.46182 3.21008 4.35446 1.94336C6.24713 0.676643 8.47349 0 10.7509 0ZM10.7509 1.5C8.77055 1.5 6.83425 2.08796 5.18845 3.18945C3.54806 4.28734 2.26871 5.8459 1.51266 7.66895C1.49496 7.72117 1.49582 7.77789 1.51364 7.83008C2.26971 9.65288 3.54823 11.2118 5.18845 12.3096C6.83422 13.411 8.7706 13.999 10.7509 13.999C12.7311 13.9989 14.6668 13.4109 16.3125 12.3096C17.9526 11.2119 19.2302 9.65272 19.9863 7.83008C20.0043 7.7777 20.0051 7.72136 19.9873 7.66895C19.2312 5.84606 17.9527 4.28727 16.3125 3.18945C14.6668 2.08806 12.7312 1.50009 10.7509 1.5Z" fill="currentColor"/>
<path d="M13.0005 7.74938C13.0005 6.50674 11.9931 5.49938 10.7505 5.49938C9.50783 5.49938 8.50047 6.50674 8.50047 7.74938C8.50047 8.99202 9.50783 9.99938 10.7505 9.99938C11.9931 9.99938 13.0005 8.99202 13.0005 7.74938ZM14.5005 7.74938C14.5005 9.82045 12.8215 11.4994 10.7505 11.4994C8.67941 11.4994 7.00047 9.82045 7.00047 7.74938C7.00047 5.67832 8.67941 3.99938 10.7505 3.99938C12.8215 3.99938 14.5005 5.67832 14.5005 7.74938Z" fill="currentColor"/>
</svg>
