<svg width="100%" height="100%" viewBox="0 0 13 15" fill="none" xmlns="http://www.w3.org/2000/svg">
<path d="M6.66667 9.83333C6.66667 9.74129 6.59205 9.66667 6.5 9.66667C6.40795 9.66667 6.33333 9.74129 6.33333 9.83333C6.33333 9.92538 6.40795 10 6.5 10C6.59205 10 6.66667 9.92538 6.66667 9.83333ZM7.66667 9.83333C7.66667 10.4777 7.14433 11 6.5 11C5.85567 11 5.33333 10.4777 5.33333 9.83333C5.33333 9.189 5.85567 8.66667 6.5 8.66667C7.14433 8.66667 7.66667 9.189 7.66667 9.83333Z" fill="currentColor"/>
<path d="M12 7.16667C12 6.70643 11.6269 6.33333 11.1667 6.33333H1.83333C1.3731 6.33333 1 6.70643 1 7.16667V12.5C1 12.9602 1.3731 13.3333 1.83333 13.3333H11.1667C11.6269 13.3333 12 12.9602 12 12.5V7.16667ZM13 12.5C13 13.5125 12.1792 14.3333 11.1667 14.3333H1.83333C0.820811 14.3333 0 13.5125 0 12.5V7.16667C0 6.15414 0.820811 5.33333 1.83333 5.33333H11.1667C12.1792 5.33333 13 6.15414 13 7.16667V12.5Z" fill="currentColor"/>
<path d="M9.33333 5.83333V3.83333C9.33333 3.08189 9.03461 2.36143 8.50326 1.83008C7.9719 1.29873 7.25145 1 6.5 1C5.74855 1 5.0281 1.29873 4.49675 1.83008C3.96539 2.36143 3.66667 3.08189 3.66667 3.83333V5.83333C3.66667 6.10948 3.44281 6.33333 3.16667 6.33333C2.89052 6.33333 2.66667 6.10948 2.66667 5.83333V3.83333C2.66667 2.81667 3.07082 1.84194 3.78971 1.12305C4.5086 0.404157 5.48334 0 6.5 0C7.51666 0 8.4914 0.404157 9.21029 1.12305C9.92918 1.84194 10.3333 2.81667 10.3333 3.83333V5.83333C10.3333 6.10948 10.1095 6.33333 9.83333 6.33333C9.55719 6.33333 9.33333 6.10948 9.33333 5.83333Z" fill="currentColor"/>
</svg>
