<svg width="100%" height="100%" viewBox="0 0 103 24" fill="none" xmlns="http://www.w3.org/2000/svg">
<path d="M31.912 18V7.696H34.088L37.112 13.888L40.136 7.696H42.296V18H40.136V11.296L37.736 16.224H36.488L34.072 11.296V18H31.912ZM46.9151 18.16C46.0085 18.16 45.2991 17.9093 44.7871 17.408C44.2858 16.896 44.0351 16.1493 44.0351 15.168V10.416H46.1951V15.12C46.1951 15.632 46.3178 16.0053 46.5631 16.24C46.8085 16.464 47.1765 16.576 47.6671 16.576C48.0405 16.576 48.3818 16.5013 48.6911 16.352C49.0111 16.2027 49.2831 16.016 49.5071 15.792V10.416H51.6671V18H49.6671L49.5871 17.28C49.2671 17.536 48.8885 17.7493 48.4511 17.92C48.0245 18.08 47.5125 18.16 46.9151 18.16ZM56.1778 18.16C55.6124 18.16 55.0738 18.1173 54.5618 18.032C54.0498 17.9573 53.6391 17.8613 53.3298 17.744V15.952C53.7031 16.1013 54.1244 16.2187 54.5938 16.304C55.0631 16.3787 55.4951 16.416 55.8898 16.416C56.4231 16.416 56.7964 16.384 57.0098 16.32C57.2338 16.256 57.3458 16.112 57.3458 15.888C57.3458 15.632 57.1751 15.4453 56.8338 15.328C56.5031 15.2107 56.0071 15.0453 55.3458 14.832C54.6524 14.5973 54.1191 14.3147 53.7458 13.984C53.3724 13.6533 53.1858 13.1627 53.1858 12.512C53.1858 11.7867 53.4471 11.232 53.9698 10.848C54.5031 10.4533 55.3564 10.256 56.5298 10.256C56.9991 10.256 57.4418 10.2933 57.8578 10.368C58.2738 10.432 58.6258 10.512 58.9138 10.608V12.384C58.6258 12.2453 58.2951 12.144 57.9218 12.08C57.5484 12.0053 57.2018 11.968 56.8818 11.968C56.4231 11.968 56.0551 12 55.7778 12.064C55.5111 12.128 55.3778 12.2667 55.3778 12.48C55.3778 12.7147 55.5218 12.88 55.8098 12.976C56.1084 13.072 56.5671 13.216 57.1858 13.408C57.7938 13.5893 58.2684 13.7867 58.6098 14C58.9511 14.2133 59.1911 14.4693 59.3298 14.768C59.4684 15.056 59.5378 15.4187 59.5378 15.856C59.5378 17.392 58.4178 18.16 56.1778 18.16ZM61.565 9.024V7.328H63.917V9.024H61.565ZM61.741 18V12.016H60.605L60.797 10.416H63.901V18H61.741ZM69.6121 18.16C68.2575 18.16 67.2175 17.824 66.4921 17.152C65.7775 16.48 65.4201 15.4987 65.4201 14.208C65.4201 12.8747 65.8041 11.8827 66.5721 11.232C67.3508 10.5813 68.3855 10.256 69.6761 10.256C70.2095 10.256 70.6681 10.2933 71.0521 10.368C71.4361 10.4427 71.8095 10.5653 72.1721 10.736V12.288C71.9055 12.16 71.5961 12.0587 71.2441 11.984C70.8921 11.9093 70.5135 11.872 70.1081 11.872C69.2975 11.872 68.6788 12.0427 68.2521 12.384C67.8255 12.7147 67.6121 13.3227 67.6121 14.208C67.6121 15.0187 67.8041 15.6107 68.1881 15.984C68.5828 16.3573 69.2175 16.544 70.0921 16.544C70.4655 16.544 70.8281 16.5067 71.1801 16.432C71.5428 16.3573 71.8788 16.2453 72.1881 16.096V17.696C71.4735 18.0053 70.6148 18.16 69.6121 18.16ZM73.5526 18V7.696H75.7126V12.016H80.2086V7.696H82.3686V18H80.2086V13.68H75.7126V18H73.5526ZM86.9933 18.16C86.0866 18.16 85.3773 17.9093 84.8653 17.408C84.3639 16.896 84.1133 16.1493 84.1133 15.168V10.416H86.2733V15.12C86.2733 15.632 86.3959 16.0053 86.6413 16.24C86.8866 16.464 87.2546 16.576 87.7453 16.576C88.1186 16.576 88.4599 16.5013 88.7693 16.352C89.0893 16.2027 89.3613 16.016 89.5853 15.792V10.416H91.7453V18H89.7453L89.6653 17.28C89.3453 17.536 88.9666 17.7493 88.5293 17.92C88.1026 18.08 87.5906 18.16 86.9933 18.16ZM98.0479 18.16C97.5145 18.16 97.0505 18.0907 96.6559 17.952C96.2612 17.8027 95.8985 17.584 95.5679 17.296L95.4559 18H93.5839V7.216H95.7439V10.832C96.0532 10.64 96.3999 10.496 96.7839 10.4C97.1679 10.304 97.5679 10.256 97.9839 10.256C99.0719 10.256 99.9305 10.5653 100.56 11.184C101.2 11.792 101.52 12.7787 101.52 14.144C101.52 15.5093 101.205 16.5227 100.576 17.184C99.9572 17.8347 99.1145 18.16 98.0479 18.16ZM97.4399 16.576C98.1332 16.576 98.6185 16.3733 98.8959 15.968C99.1839 15.5627 99.3279 14.9547 99.3279 14.144C99.3279 13.3013 99.1732 12.7093 98.8639 12.368C98.5652 12.016 98.0852 11.84 97.4239 11.84C97.0932 11.84 96.7785 11.888 96.4799 11.984C96.1919 12.08 95.9465 12.2187 95.7439 12.4V15.888C95.9572 16.112 96.2079 16.2827 96.4959 16.4C96.7945 16.5173 97.1092 16.576 97.4399 16.576Z" fill="currentColor"/>
<path d="M17.0569 5.12359C20.8913 9.16538 21.0137 15.5335 17.2201 19.6326C17.017 19.6855 16.4556 19.1241 16.5094 18.9219C16.532 18.8386 17.2209 18.0499 17.3519 17.8477C19.2904 14.8489 19.5264 11.1056 17.8474 7.93324C17.745 7.73974 17.1376 6.72712 17.0231 6.67159L16.768 6.77051L11.9452 11.6609C12.5795 13.497 10.5743 15.1456 8.89178 14.1087C8.06919 13.602 7.68479 12.4748 8.07613 11.5889L3.01652 6.63775C0.125311 10.2821 0.507103 15.5222 3.49029 18.9948L2.91326 19.636C2.79786 19.6707 2.74059 19.6247 2.65555 19.5597C2.4152 19.3757 1.81648 18.4638 1.62732 18.1592C-1.0513 13.8597 -0.387505 8.15537 3.35579 4.72705L9.04276 10.4088C9.684 10.3429 10.1838 10.1598 10.8242 10.4435L16.5892 4.76436C16.8062 4.6533 16.9311 4.9891 17.0587 5.12359H17.0569Z" fill="currentColor"/>
<path d="M6.50034 11.5102C5.75325 17.3048 14.1926 17.408 13.4811 11.5518L14.5492 10.4516C14.695 10.3935 14.7705 10.7032 14.8043 10.8004C15.7215 13.427 14.2056 16.4327 11.5547 17.2588C7.34723 18.5707 3.74103 14.4873 5.30724 10.4507C5.4643 10.3058 6.29904 11.4408 6.50034 11.5111V11.5102Z" fill="currentColor"/>
<path d="M16.0148 20.7381C16.0547 20.7911 16.1814 20.7433 16.1528 20.8119C12.7453 23.6935 7.24399 23.6831 3.83215 20.8119L4.56884 20.0908C5.26127 20.6436 5.99015 21.0731 6.82401 21.3776C9.78377 22.4597 12.8806 21.9816 15.4308 20.1741C15.6087 20.1568 15.9029 20.5915 16.0148 20.7381Z" fill="currentColor"/>
<path d="M15.6477 9.33733L16.6725 8.3681C17.9237 10.7656 18.0929 13.4876 16.9484 15.9701C16.8009 16.2894 15.7866 18.0353 15.5141 17.9867L14.5969 17.0704C16.4573 14.8638 16.9346 11.9622 15.6477 9.33647V9.33733Z" fill="currentColor"/>
<path d="M4.04127 9.11255C4.1211 9.2106 4.28857 9.28609 4.31981 9.45356C3.03994 11.9795 3.55015 14.9123 5.38188 17.013L4.47079 17.9883C4.30766 18.0178 3.68464 17.0955 3.56924 16.9124C2.02211 14.4533 1.80866 11.3721 3.1484 8.77067C3.19959 8.67088 3.28203 8.42445 3.43561 8.45916C3.6725 8.64746 3.85298 8.88174 4.04127 9.11342V9.11255Z" fill="currentColor"/>
<path d="M15.4586 3.60077C15.5332 3.70924 14.8807 4.37477 14.7237 4.37824C11.8264 2.5708 8.1603 2.57601 5.26128 4.37824L4.5246 3.64329C4.95758 3.41595 5.36454 3.14002 5.81054 2.93264C8.98202 1.45927 12.5084 1.76817 15.4577 3.60077H15.4586Z" fill="currentColor"/>
</svg>
