<svg width="100%" height="100%" viewBox="0 0 13 16" fill="none" xmlns="http://www.w3.org/2000/svg">
<path d="M6.10276 0.137916C6.34983 -0.0592597 6.71443 -0.0449312 6.94475 0.180383L11.977 5.10343C12.2227 5.34375 12.2227 5.7333 11.977 5.97362C11.7314 6.21394 11.3332 6.21394 11.0875 5.97362L6.5 1.48566L1.91249 5.97362C1.66684 6.21394 1.26865 6.21394 1.023 5.97362C0.777344 5.7333 0.777344 5.34375 1.023 5.10343L6.05525 0.180383L6.10276 0.137916Z" fill="currentColor"/>
<path d="M5.87097 12.1026V0.615477C5.87097 0.275611 6.1526 9.60516e-05 6.5 9.60516e-05C6.8474 9.60516e-05 7.12903 0.275611 7.12903 0.615477V12.1026C7.12903 12.4425 6.8474 12.718 6.5 12.718C6.1526 12.718 5.87097 12.4425 5.87097 12.1026Z" fill="currentColor"/>
<path d="M12.371 14.7692C12.7184 14.7692 13 15.0448 13 15.3846C13 15.7245 12.7184 16 12.371 16H0.629032C0.281627 16 0 15.7245 0 15.3846C0 15.0448 0.281627 14.7692 0.629032 14.7692H12.371Z" fill="currentColor"/>
</svg>
