<svg width="20" height="21" viewBox="0 0 20 21" fill="none" xmlns="http://www.w3.org/2000/svg">
<path d="M17.0569 3.12359C20.8913 7.16538 21.0137 13.5335 17.2201 17.6326C17.017 17.6855 16.4556 17.1241 16.5094 16.9219C16.532 16.8386 17.2209 16.0499 17.3519 15.8477C19.2904 12.8489 19.5264 9.10558 17.8474 5.93324C17.745 5.73974 17.1376 4.72712 17.0231 4.67159L16.768 4.77051L11.9452 9.66091C12.5795 11.497 10.5743 13.1456 8.89178 12.1087C8.06919 11.602 7.68479 10.4748 8.07613 9.58889L3.01652 4.63775C0.125311 8.28212 0.507103 13.5222 3.49029 16.9948L2.91326 17.636C2.79786 17.6707 2.74059 17.6247 2.65555 17.5597C2.4152 17.3757 1.81648 16.4638 1.62732 16.1592C-1.0513 11.8597 -0.387505 6.15537 3.35579 2.72705L9.04276 8.40881C9.684 8.34286 10.1838 8.15978 10.8242 8.44352L16.5892 2.76436C16.8062 2.6533 16.9311 2.9891 17.0587 3.12359H17.0569Z" fill="white"/>
<path d="M6.50058 9.51023C5.75348 15.3048 14.1928 15.408 13.4813 9.55188L14.5495 8.45162C14.6952 8.39349 14.7707 8.70326 14.8046 8.80044C15.7217 11.427 14.2058 14.4327 11.555 15.2588C7.34746 16.5708 3.74127 12.4873 5.30748 8.45076C5.46454 8.30585 6.29927 9.44081 6.50058 9.5111V9.51023Z" fill="white"/>
<path d="M16.0147 18.7381C16.0546 18.7911 16.1813 18.7433 16.1526 18.8119C12.7451 21.6935 7.24386 21.6831 3.83203 18.8119L4.56872 18.0908C5.26115 18.6436 5.99002 19.0731 6.82389 19.3776C9.78365 20.4597 12.8805 19.9816 15.4307 18.1741C15.6086 18.1568 15.9027 18.5915 16.0147 18.7381Z" fill="white"/>
<path d="M15.648 7.3374L16.6727 6.36816C17.924 8.76564 18.0932 11.4876 16.9487 13.9702C16.8011 14.2895 15.7868 16.0353 15.5143 15.9867L14.5972 15.0704C16.4575 12.8638 16.9348 9.96222 15.648 7.33653V7.3374Z" fill="white"/>
<path d="M4.04124 7.11252C4.12107 7.21057 4.28854 7.28606 4.31978 7.45353C3.03991 9.97943 3.55012 12.9123 5.38185 15.013L4.47076 15.9883C4.30763 16.0178 3.68461 15.0954 3.56921 14.9124C2.02208 12.4533 1.80863 9.37203 3.14837 6.77064C3.19956 6.67085 3.282 6.42442 3.43558 6.45913C3.67247 6.64743 3.85295 6.88171 4.04124 7.11338V7.11252Z" fill="white"/>
<path d="M15.4584 1.60077C15.533 1.70924 14.8805 2.37477 14.7235 2.37824C11.8262 0.570804 8.16012 0.57601 5.2611 2.37824L4.52441 1.64329C4.9574 1.41595 5.36436 1.14002 5.81036 0.932639C8.98184 -0.540732 12.5082 -0.231827 15.4576 1.60077H15.4584Z" fill="white"/>
</svg>
